<svg width="400" height="80" viewBox="0 0 400 80" fill="none" xmlns="http://www.w3.org/2000/svg">
<g clip-path="url(#clip0_2_26)">
<path d="M108.997 39.7692C85.071 51.4182 60.6438 79.5385 39.0675 79.5385C17.4911 79.5385 0 61.7332 0 39.7692C0 17.8053 17.4911 0 39.0675 0C60.6438 0 83.7417 27.0622 108.997 39.7692Z" fill="#8DFFA6"/>
<path d="M103.097 64.2814C98.0321 64.2814 93.4674 63.2507 89.4034 61.1892C85.3982 59.0689 82.2471 56.1533 79.95 52.4427C77.7119 48.732 76.5928 44.5207 76.5928 39.8088C76.5928 35.0969 77.7119 30.8856 79.95 27.1749C82.2471 23.4642 85.3982 20.5782 89.4034 18.5167C93.4674 16.3963 98.0321 15.3361 103.097 15.3361C108.104 15.3361 112.462 16.3963 116.173 18.5167C119.943 20.5782 122.681 23.5526 124.39 27.4399L113.699 33.1826C111.226 28.8241 107.662 26.6448 103.009 26.6448C99.4162 26.6448 96.4418 27.8228 94.0859 30.1788C91.7299 32.5347 90.5519 35.7447 90.5519 39.8088C90.5519 43.8728 91.7299 47.0829 94.0859 49.4388C96.4418 51.7948 99.4162 52.9728 103.009 52.9728C107.721 52.9728 111.284 50.7935 113.699 46.435L124.39 52.266C122.681 56.0355 119.943 58.9805 116.173 61.1009C112.462 63.2213 108.104 64.2814 103.097 64.2814Z" fill="black"/>
<path d="M156.089 15.3361C163.451 15.3361 169.106 17.1031 173.052 20.6371C176.998 24.1121 178.971 29.3836 178.971 36.4515V63.5747H166.072V57.6553C163.481 62.0727 158.651 64.2814 151.583 64.2814C147.931 64.2814 144.751 63.663 142.041 62.4261C139.391 61.1892 137.359 59.4812 135.945 57.3019C134.532 55.1226 133.825 52.6488 133.825 49.8806C133.825 45.4631 135.474 41.9881 138.772 39.4554C142.13 36.9227 147.283 35.6564 154.234 35.6564H165.189C165.189 32.6525 164.276 30.3555 162.45 28.7652C160.624 27.116 157.885 26.2914 154.234 26.2914C151.701 26.2914 149.198 26.7037 146.724 27.5283C144.309 28.294 142.248 29.3542 140.539 30.7089L135.592 21.0788C138.183 19.2529 141.276 17.8394 144.869 16.8381C148.52 15.8368 152.26 15.3361 156.089 15.3361ZM155.029 55.0048C157.385 55.0048 159.476 54.4747 161.301 53.4145C163.127 52.2954 164.423 50.6757 165.189 48.5553V43.6961H155.735C150.081 43.6961 147.254 45.5515 147.254 49.2621C147.254 51.0291 147.931 52.4427 149.286 53.5029C150.7 54.5042 152.614 55.0048 155.029 55.0048Z" fill="black"/>
<path d="M219.351 64.2814C214.285 64.2814 209.721 63.2507 205.657 61.1892C201.652 59.0689 198.5 56.1533 196.203 52.4427C193.965 48.732 192.846 44.5207 192.846 39.8088C192.846 35.0969 193.965 30.8856 196.203 27.1749C198.5 23.4642 201.652 20.5782 205.657 18.5167C209.721 16.3963 214.285 15.3361 219.351 15.3361C224.357 15.3361 228.716 16.3963 232.426 18.5167C236.196 20.5782 238.935 23.5526 240.643 27.4399L229.953 33.1826C227.479 28.8241 223.916 26.6448 219.262 26.6448C215.67 26.6448 212.695 27.8228 210.339 30.1788C207.983 32.5347 206.805 35.7447 206.805 39.8088C206.805 43.8728 207.983 47.0829 210.339 49.4388C212.695 51.7948 215.67 52.9728 219.262 52.9728C223.974 52.9728 227.538 50.7935 229.953 46.435L240.643 52.266C238.935 56.0355 236.196 58.9805 232.426 61.1009C228.716 63.2213 224.357 64.2814 219.351 64.2814Z" fill="black"/>
<path d="M284.343 61.2776C282.988 62.2789 281.31 63.0446 279.307 63.5747C277.364 64.0458 275.302 64.2814 273.123 64.2814C267.469 64.2814 263.081 62.8384 259.959 59.9524C256.896 57.0663 255.365 52.8255 255.365 47.2301V27.705H248.032V17.1031H255.365V5.52942H269.147V17.1031H280.986V27.705H269.147V47.0534C269.147 49.056 269.648 50.6168 270.649 51.7359C271.709 52.7961 273.182 53.3262 275.067 53.3262C277.246 53.3262 279.101 52.7372 280.633 51.5592L284.343 61.2776Z" fill="black"/>
<path d="M344.382 16.0429V63.5747H331.307V57.9203C329.481 59.9818 327.302 61.5721 324.769 62.6912C322.236 63.7514 319.498 64.2814 316.553 64.2814C310.309 64.2814 305.362 62.485 301.71 58.8922C298.058 55.2993 296.232 49.9689 296.232 42.901V16.0429H310.015V40.869C310.015 48.5259 313.225 52.3543 319.645 52.3543C322.943 52.3543 325.594 51.2942 327.596 49.1738C329.599 46.9945 330.6 43.7845 330.6 39.5438V16.0429H344.382Z" fill="black"/>
<path d="M377.56 64.2814C373.613 64.2814 369.755 63.8103 365.986 62.8679C362.216 61.8666 359.212 60.6297 356.974 59.1572L361.568 49.2621C363.689 50.6168 366.251 51.7359 369.255 52.6194C372.259 53.444 375.204 53.8563 378.09 53.8563C383.921 53.8563 386.836 52.4132 386.836 49.5272C386.836 48.1725 386.041 47.2007 384.451 46.6117C382.861 46.0227 380.416 45.522 377.118 45.1097C373.231 44.5207 370.02 43.8434 367.488 43.0777C364.955 42.312 362.746 40.9573 360.862 39.0137C359.036 37.07 358.123 34.3017 358.123 30.7089C358.123 27.705 358.977 25.0545 360.685 22.7575C362.452 20.4015 364.985 18.5756 368.283 17.2798C371.64 15.984 375.586 15.3361 380.122 15.3361C383.479 15.3361 386.807 15.719 390.105 16.4847C393.462 17.1915 396.231 18.1928 398.41 19.4885L393.816 29.2953C389.634 26.9393 385.069 25.7613 380.122 25.7613C377.177 25.7613 374.968 26.1736 373.496 26.9982C372.023 27.8228 371.287 28.883 371.287 30.1788C371.287 31.6512 372.082 32.682 373.672 33.271C375.263 33.86 377.795 34.4195 381.27 34.9496C385.158 35.5975 388.338 36.3043 390.812 37.07C393.286 37.7768 395.436 39.102 397.261 41.0457C399.087 42.9894 400 45.6987 400 49.1738C400 52.1187 399.117 54.7398 397.35 57.0368C395.583 59.3339 392.991 61.1303 389.575 62.4261C386.218 63.663 382.213 64.2814 377.56 64.2814Z" fill="black"/>
</g>
<defs>
<clipPath id="clip0_2_26">
<rect width="400" height="80" fill="white"/>
</clipPath>
</defs>
</svg>
