<svg width="70" height="70" viewBox="0 0 70 70" fill="none" xmlns="http://www.w3.org/2000/svg">
<path d="M33.724 65.625H36.276C50.1594 65.625 57.0755 65.625 61.363 61.3375C65.625 57.05 65.625 50.1083 65.625 36.276V33.6729C65.625 19.8917 65.625 12.95 61.363 8.6625C57.0755 4.375 50.1339 4.375 36.276 4.375H33.724C19.8406 4.375 12.9245 4.375 8.63698 8.6625C4.375 12.95 4.375 19.8917 4.375 33.724V36.3271C4.375 50.1083 4.375 57.05 8.6625 61.3375C12.95 65.625 19.8917 65.625 33.724 65.625Z" fill="#0077FF"/>
<path d="M36.7585 48.125C23.3056 48.125 15.6322 39.0925 15.3125 24.0625H22.0513C22.2726 35.0942 27.2406 39.767 31.1756 40.7304V24.0625H37.5209V33.5767C41.4067 33.1672 45.4893 28.8316 46.8666 24.0625H53.2119C52.6929 26.5359 51.6583 28.8778 50.173 30.9418C48.6876 33.0058 46.7834 34.7473 44.5794 36.0576C47.0396 37.2549 49.2126 38.9495 50.9549 41.0296C52.6973 43.1097 53.9695 45.528 54.6875 48.125H47.7028C47.0583 45.8693 45.7483 43.8501 43.937 42.3205C42.1258 40.7908 39.8938 39.8188 37.5209 39.5261V48.125H36.7585V48.125Z" fill="white"/>
</svg>
